<?xml version="1.0" standalone="no"?>
<!DOCTYPE svg PUBLIC "-//W3C//DTD SVG 20010904//EN"
 "http://www.w3.org/TR/2001/REC-SVG-20010904/DTD/svg10.dtd">
<svg version="1.0" xmlns="http://www.w3.org/2000/svg"
 width="960.000000pt" height="960.000000pt" viewBox="0 0 960.000000 960.000000"
 preserveAspectRatio="xMidYMid meet">
<metadata>
Created by potrace 1.11, written by Peter Selinger 2001-2013
</metadata>
<g transform="translate(0.000000,960.000000) scale(0.100000,-0.100000)"
fill="#000000" stroke="none">
<path d="M2255 6924 c-28 -8 -62 -17 -77 -20 -16 -4 -28 -10 -28 -15 0 -5 -5
-9 -11 -9 -15 0 -79 -50 -109 -84 -36 -42 -80 -114 -80 -131 0 -7 -5 -17 -10
-20 -6 -4 -8 -9 -6 -13 2 -4 -2 -30 -9 -57 -7 -28 -10 -54 -7 -59 2 -5 6 -33
8 -62 4 -54 58 -194 75 -194 5 0 9 -6 9 -12 1 -15 91 -91 136 -114 93 -50 30
-47 1220 -49 610 -1 1116 -5 1122 -9 7 -4 12 -4 12 1 0 10 386 8 450 -1 54 -9
148 -50 172 -76 10 -10 23 -22 30 -27 47 -30 109 -154 124 -248 3 -22 8 -43
11 -47 2 -5 -1 -8 -7 -8 -7 0 -8 -6 -2 -17 12 -24 -10 -128 -41 -196 -33 -72
-106 -148 -177 -186 -33 -18 -60 -29 -60 -25 0 3 -6 2 -12 -3 -19 -15 -62 -15
-973 -16 -683 0 -851 -3 -900 -14 -33 -8 -64 -18 -69 -23 -6 -6 -16 -10 -23
-10 -27 0 -136 -101 -168 -156 -45 -77 -62 -145 -60 -236 2 -84 30 -182 61
-212 8 -8 14 -18 14 -23 0 -14 81 -88 126 -116 104 -64 48 -61 1044 -63 498
-1 928 -4 955 -8 132 -18 263 -130 305 -261 7 -22 16 -49 20 -60 9 -25 7 -170
-4 -210 -42 -163 -174 -290 -322 -311 -27 -3 -141 -6 -254 -5 -113 1 -221 1
-240 1 -387 -5 -406 -6 -460 -24 -30 -10 -62 -25 -71 -32 -8 -8 -20 -14 -25
-14 -16 0 -100 -85 -129 -130 -70 -111 -86 -253 -42 -376 22 -60 37 -85 94
-150 32 -37 121 -91 180 -110 56 -18 127 -19 1718 -18 1596 1 1875 3 1875 14
0 3 12 5 26 5 15 -1 49 2 78 7 28 5 62 11 76 13 14 2 35 6 48 9 12 3 30 8 40
10 189 43 467 155 592 237 14 9 59 38 100 65 259 170 522 449 668 709 27 49
122 244 122 252 0 3 7 19 15 36 18 40 73 210 80 247 3 16 9 39 14 52 5 13 9
26 9 31 0 10 12 93 18 120 19 97 27 453 11 572 -7 54 -10 76 -22 150 -21 131
-91 349 -162 505 -14 30 -24 57 -23 59 1 2 -2 7 -7 10 -8 6 -15 18 -65 109
-17 31 -44 77 -62 101 -17 24 -35 51 -41 59 -24 39 -144 183 -204 246 -111
115 -328 287 -446 352 -88 49 -184 97 -237 120 -103 43 -113 47 -118 49 -3 0
-50 15 -105 32 -55 17 -116 35 -135 39 -19 4 -42 9 -50 11 -8 2 -24 5 -35 7
-11 2 -36 6 -55 10 -19 3 -55 9 -80 12 -25 3 -61 7 -80 10 -19 2 -1221 6
-2670 8 -2182 2 -2644 1 -2685 -10z"/>
<path d="M545 5215 c-155 -36 -281 -160 -323 -316 -23 -87 -7 -209 40 -303 29
-55 123 -147 184 -179 85 -44 121 -46 727 -45 460 0 589 3 625 14 181 54 307
209 316 390 7 156 -75 311 -204 387 -107 62 -80 60 -725 62 -419 1 -604 -2
-640 -10z"/>
<path d="M2715 3505 c-22 -6 -44 -12 -50 -14 -30 -6 -120 -67 -158 -106 -47
-48 -93 -124 -101 -168 -2 -14 -8 -32 -11 -37 -8 -12 -9 -143 -1 -175 28 -129
113 -237 231 -296 101 -50 186 -57 320 -25 38 9 108 50 153 91 108 97 158 238
138 383 -6 46 -45 145 -58 150 -4 2 -8 9 -8 15 -1 22 -126 140 -150 142 -3 1
-14 6 -25 12 -68 36 -206 50 -280 28z"/>
</g>
</svg>
